HIERARCHY
ROOT Root
{
  OFFSET 0.0 0.0 0.0
  CHANNELS 6 Xposition Yposition Zposition Zrotation Yrotation Xrotation
  JOINT Hips
  {
    OFFSET 0.0 100.0 0.0
    CHANNELS 6 Xposition Yposition Zposition Zrotation Yrotation Xrotation
    JOINT Spine1
    {
      OFFSET 5.003913 -0.037094 -0.013727
      CHANNELS 3 Zrotation Yrotation Xrotation
      JOINT Spine2
      {
        OFFSET 7.125363 -1e-06 0.0
        CHANNELS 3 Zrotation Yrotation Xrotation
        JOINT Chest
        {
          OFFSET 7.594027 1e-06 0.0
          CHANNELS 3 Zrotation Yrotation Xrotation
          JOINT Neck1
          {
            OFFSET 26.313086 -0.460272 -0.181672
            CHANNELS 3 Zrotation Yrotation Xrotation
            JOINT Neck2
            {
              OFFSET 8.045911 0.0 0.0
              CHANNELS 3 Zrotation Yrotation Xrotation
              JOINT Head
              {
                OFFSET 6.432774 0.0 0.0
                CHANNELS 3 Zrotation Yrotation Xrotation
                JOINT HeadEnd
                {
                  OFFSET 16.169773 0.06451 0.00362
                  CHANNELS 3 Zrotation Yrotation Xrotation
                }
                JOINT Jaw
                {
                  OFFSET 0.108741 3.12938 0.002639
                  CHANNELS 3 Zrotation Yrotation Xrotation
                }
                JOINT LeftEye
                {
                  OFFSET 4.45173 8.166359 3.206392
                  CHANNELS 3 Zrotation Yrotation Xrotation
                }
                JOINT RightEye
                {
                  OFFSET 4.436895 8.135758 -3.222429
                  CHANNELS 3 Zrotation Yrotation Xrotation
                }
              }
            }
          }
          JOINT LeftShoulder
          {
            OFFSET 23.218927 5.195579 1.621656
            CHANNELS 3 Zrotation Yrotation Xrotation
            JOINT LeftArm
            {
              OFFSET 15.902118 2e-06 -2e-06
              CHANNELS 3 Zrotation Yrotation Xrotation
              JOINT LeftForeArm
              {
                OFFSET 28.739307 0.0 -1e-06
                CHANNELS 3 Zrotation Yrotation Xrotation
                JOINT LeftHand
                {
                  OFFSET 27.093981 -4e-06 0.0
                  CHANNELS 3 Zrotation Yrotation Xrotation
                  JOINT LeftHandThumb1
                  {
                    OFFSET 2.276781 3.380274 0.83384
                    CHANNELS 3 Zrotation Yrotation Xrotation
                    JOINT LeftHandThumb2
                    {
                      OFFSET 4.705309 -1e-06 -1e-06
                      CHANNELS 3 Zrotation Yrotation Xrotation
                      JOINT LeftHandThumb3
                      {
                        OFFSET 2.798515 0.0 3e-06
                        CHANNELS 3 Zrotation Yrotation Xrotation
                        JOINT LeftHandThumbEnd
                        {
                          OFFSET 3.180793 4e-06 -4e-06
                          CHANNELS 3 Zrotation Yrotation Xrotation
                        }
                      }
                    }
                  }
                  JOINT LeftHandIndex1
                  {
                    OFFSET 3.247786 2.352677 0.137192
                    CHANNELS 3 Zrotation Yrotation Xrotation
                    JOINT LeftHandIndex2
                    {
                      OFFSET 6.367095 1e-06 0.0
                      CHANNELS 3 Zrotation Yrotation Xrotation
                      JOINT LeftHandIndex3
                      {
                        OFFSET 3.662364 0.0 0.0
                        CHANNELS 3 Zrotation Yrotation Xrotation
                        JOINT LeftHandIndex4
                        {
                          OFFSET 2.329242 4e-06 -4e-06
                          CHANNELS 3 Zrotation Yrotation Xrotation
                          JOINT LeftHandIndexEnd
                          {
                            OFFSET 2.767823 1e-06 0.0
                            CHANNELS 3 Zrotation Yrotation Xrotation
                          }
                        }
                      }
                    }
                  }
                  JOINT LeftHandMiddle1
                  {
                    OFFSET 3.163612 0.945023 -0.406112
                    CHANNELS 3 Zrotation Yrotation Xrotation
                    JOINT LeftHandMiddle2
                    {
                      OFFSET 6.276789 3e-06 0.0
                      CHANNELS 3 Zrotation Yrotation Xrotation
                      JOINT LeftHandMiddle3
                      {
                        OFFSET 4.35652 -1e-06 4e-06
                        CHANNELS 3 Zrotation Yrotation Xrotation
                        JOINT LeftHandMiddle4
                        {
                          OFFSET 2.996877 0.0 8e-06
                          CHANNELS 3 Zrotation Yrotation Xrotation
                          JOINT LeftHandMiddleEnd
                          {
                            OFFSET 2.323256 3e-06 -4e-06
                            CHANNELS 3 Zrotation Yrotation Xrotation
                          }
                        }
                      }
                    }
                  }
                  JOINT LeftHandRing1
                  {
                    OFFSET 2.882606 -0.309162 0.107445
                    CHANNELS 3 Zrotation Yrotation Xrotation
                    JOINT LeftHandRing2
                    {
                      OFFSET 6.033198 0.0 4e-06
                      CHANNELS 3 Zrotation Yrotation Xrotation
                      JOINT LeftHandRing3
                      {
                        OFFSET 4.350578 3e-06 0.0
                        CHANNELS 3 Zrotation Yrotation Xrotation
                        JOINT LeftHandRing4
                        {
                          OFFSET 2.651321 2e-06 -7e-06
                          CHANNELS 3 Zrotation Yrotation Xrotation
                          JOINT LeftHandRingEnd
                          {
                            OFFSET 1.937663 1e-06 -4e-06
                            CHANNELS 3 Zrotation Yrotation Xrotation
                          }
                        }
                      }
                    }
                  }
                  JOINT LeftHandPinky1
                  {
                    OFFSET 2.865315 -1.525436 0.575687
                    CHANNELS 3 Zrotation Yrotation Xrotation
                    JOINT LeftHandPinky2
                    {
                      OFFSET 5.54936 1e-06 -8e-06
                      CHANNELS 3 Zrotation Yrotation Xrotation
                      JOINT LeftHandPinky3
                      {
                        OFFSET 3.070974 0.0 -4e-06
                        CHANNELS 3 Zrotation Yrotation Xrotation
                        JOINT LeftHandPinky4
                        {
                          OFFSET 1.549672 1e-06 0.0
                          CHANNELS 3 Zrotation Yrotation Xrotation
                          JOINT LeftHandPinkyEnd
                          {
                            OFFSET 1.952123 0.0 0.0
                            CHANNELS 3 Zrotation Yrotation Xrotation
                          }
                        }
                      }
                    }
                  }
                }
              }
            }
          }
          JOINT RightShoulder
          {
            OFFSET 23.161716 5.296122 -1.380114
            CHANNELS 3 Zrotation Yrotation Xrotation
            JOINT RightArm
            {
              OFFSET -16.027195 -2e-06 1.1e-05
              CHANNELS 3 Zrotation Yrotation Xrotation
              JOINT RightForeArm
              {
                OFFSET -28.736639 4e-06 2e-06
                CHANNELS 3 Zrotation Yrotation Xrotation
                JOINT RightHand
                {
                  OFFSET -27.133619 6e-06 0.0
                  CHANNELS 3 Zrotation Yrotation Xrotation
                  JOINT RightHandThumb1
                  {
                    OFFSET -2.274328 -3.351035 -0.83067
                    CHANNELS 3 Zrotation Yrotation Xrotation
                    JOINT RightHandThumb2
                    {
                      OFFSET -4.703594 -3e-06 2e-06
                      CHANNELS 3 Zrotation Yrotation Xrotation
                      JOINT RightHandThumb3
                      {
                        OFFSET -2.794935 -4e-06 -3e-06
                        CHANNELS 3 Zrotation Yrotation Xrotation
                        JOINT RightHandThumbEnd
                        {
                          OFFSET -3.183852 4e-06 1e-06
                          CHANNELS 3 Zrotation Yrotation Xrotation
                        }
                      }
                    }
                  }
                  JOINT RightHandIndex1
                  {
                    OFFSET -3.253496 -2.33755 -0.127667
                    CHANNELS 3 Zrotation Yrotation Xrotation
                    JOINT RightHandIndex2
                    {
                      OFFSET -6.344434 0.0 0.0
                      CHANNELS 3 Zrotation Yrotation Xrotation
                      JOINT RightHandIndex3
                      {
                        OFFSET -3.654871 0.0 -8e-06
                        CHANNELS 3 Zrotation Yrotation Xrotation
                        JOINT RightHandIndex4
                        {
                          OFFSET -2.327586 -1e-06 0.0
                          CHANNELS 3 Zrotation Yrotation Xrotation
                          JOINT RightHandIndexEnd
                          {
                            OFFSET -2.770001 3e-06 8e-06
                            CHANNELS 3 Zrotation Yrotation Xrotation
                          }
                        }
                      }
                    }
                  }
                  JOINT RightHandMiddle1
                  {
                    OFFSET -3.168223 -0.944764 0.411762
                    CHANNELS 3 Zrotation Yrotation Xrotation
                    JOINT RightHandMiddle2
                    {
                      OFFSET -6.266691 -1e-06 -4e-06
                      CHANNELS 3 Zrotation Yrotation Xrotation
                      JOINT RightHandMiddle3
                      {
                        OFFSET -4.348901 0.0 0.0
                        CHANNELS 3 Zrotation Yrotation Xrotation
                        JOINT RightHandMiddle4
                        {
                          OFFSET -3.00024 2e-06 -4e-06
                          CHANNELS 3 Zrotation Yrotation Xrotation
                          JOINT RightHandMiddleEnd
                          {
                            OFFSET -2.321477 -4e-06 -4e-06
                            CHANNELS 3 Zrotation Yrotation Xrotation
                          }
                        }
                      }
                    }
                  }
                  JOINT RightHandRing1
                  {
                    OFFSET -2.885654 0.293261 -0.119232
                    CHANNELS 3 Zrotation Yrotation Xrotation
                    JOINT RightHandRing2
                    {
                      OFFSET -6.032835 -1e-06 -4e-06
                      CHANNELS 3 Zrotation Yrotation Xrotation
                      JOINT RightHandRing3
                      {
                        OFFSET -4.33881 0.0 -4e-06
                        CHANNELS 3 Zrotation Yrotation Xrotation
                        JOINT RightHandRing4
                        {
                          OFFSET -2.654903 -4e-06 -4e-06
                          CHANNELS 3 Zrotation Yrotation Xrotation
                          JOINT RightHandRingEnd
                          {
                            OFFSET -1.935122 0.0 4e-06
                            CHANNELS 3 Zrotation Yrotation Xrotation
                          }
                        }
                      }
                    }
                  }
                  JOINT RightHandPinky1
                  {
                    OFFSET -2.866241 1.503904 -0.60527
                    CHANNELS 3 Zrotation Yrotation Xrotation
                    JOINT RightHandPinky2
                    {
                      OFFSET -5.553177 -2e-06 0.0
                      CHANNELS 3 Zrotation Yrotation Xrotation
                      JOINT RightHandPinky3
                      {
                        OFFSET -3.062664 -1e-06 -4e-06
                        CHANNELS 3 Zrotation Yrotation Xrotation
                        JOINT RightHandPinky4
                        {
                          OFFSET -1.546529 2e-06 4e-06
                          CHANNELS 3 Zrotation Yrotation Xrotation
                          JOINT RightHandPinkyEnd
                          {
                            OFFSET -1.952341 0.0 -4e-06
                            CHANNELS 3 Zrotation Yrotation Xrotation
                          }
                        }
                      }
                    }
                  }
                }
              }
            }
          }
        }
      }
    }
    JOINT LeftLeg
    {
      OFFSET -8.443107 2.567604 10.043214
      CHANNELS 3 Zrotation Yrotation Xrotation
      JOINT LeftShin
      {
        OFFSET 43.229198 1e-06 -1e-06
        CHANNELS 3 Zrotation Yrotation Xrotation
        JOINT LeftFoot
        {
          OFFSET 42.298611 1e-06 1e-06
          CHANNELS 3 Zrotation Yrotation Xrotation
          JOINT LeftToeBase
          {
            OFFSET 14.165858 1e-06 0.0
            CHANNELS 3 Zrotation Yrotation Xrotation
            JOINT LeftToeEnd
            {
              OFFSET 6.7141 -0.234461 0.0
              CHANNELS 3 Zrotation Yrotation Xrotation
            }
          }
        }
      }
    }
    JOINT RightLeg
    {
      OFFSET -8.303923 2.592729 -10.047278
      CHANNELS 3 Zrotation Yrotation Xrotation
      JOINT RightShin
      {
        OFFSET -43.369682 0.0 1e-06
        CHANNELS 3 Zrotation Yrotation Xrotation
        JOINT RightFoot
        {
          OFFSET -42.260784 4e-06 2e-06
          CHANNELS 3 Zrotation Yrotation Xrotation
          JOINT RightToeBase
          {
            OFFSET -14.222245 -2e-06 -1e-06
            CHANNELS 3 Zrotation Yrotation Xrotation
            JOINT RightToeEnd
            {
              OFFSET -6.660062 0.232574 -2e-06
              CHANNELS 3 Zrotation Yrotation Xrotation
            }
          }
        }
      }
    }
  }
}
MOTION
Frames: 4
Frame Time: 0.03333333333333333
0.0 0.0 0.0 0.0 -0.0 0.0 -1.505005 100.016853 -0.119074 91.090332 2.407096 90.310013 -3.440525 -0.404596 0.17223 -12.238728 -0.350677 0.863532 19.088661 -0.574094 -0.891946 25.945597 2.018651 2.549977 -2.658035 -0.716909 0.851829 -28.465994 -0.280903 0.884192 6e-06 0.0 0.0 0.005912 0.008581 -0.013688 -0.058982 0.001093 -0.010361 -0.045174 0.014032 -0.009711 -138.929062 -70.408791 154.288467 32.472301 -55.893433 12.701334 25.779213 0.558313 0.192011 -0.104589 2.465449 -7.091153 17.63662 -26.322733 52.411194 -19.466656 -14.395597 29.410385 0.0 -8.774821 -3e-06 16.3435 -17.977499 5.658494 -0.609775 -1.795653 -3.889327 -4.80709 -11.04681 -2.93785 4e-06 -20.976015 1e-06 -5.01997 -25.033552 -4.031879 6e-06 1e-06 0.0 -10.634531 -5.68697 -3.565587 10.573271 -17.922947 -3.113902 2e-06 -13.821206 2e-06 -0.501777 -31.181505 -4.027013 -10.8559 -59.129848 6.317828 -13.982713 -7.150198 -2.875042 13.772727 -8.401491 -3.218241 0.347732 -34.211544 0.771657 -0.963032 -17.73337 2.621021 1e-06 1e-06 0.0 -17.346416 -20.095215 -4.201779 21.757557 -1.638374 3.866428 2e-06 -6.338822 1e-06 -1.69759 -22.59174 -6.194006 -1e-06 -3e-06 -1e-06 29.638773 -75.537949 164.836472 34.363739 -61.429451 12.484483 24.629091 0.048858 0.090342 2.395397 2.596185 -7.49536 22.182119 -20.375895 49.933315 -16.701811 -16.74353 28.476522 -3e-06 -12.690601 -1e-06 16.392479 -17.817776 2.545676 -0.105918 -1.513856 -4.27588 -5.039041 -5.612871 -2.953557 4e-06 -11.020523 -1e-06 -6.111297 -15.895334 -3.84047 -0.0 1e-06 1e-06 -10.283369 -5.680287 -4.341837 11.028294 -11.302404 -2.372633 -1.38427 -14.238581 -6.320119 -0.625439 -26.924189 -3.8276 -4.281379 -49.929764 -3.699692 -13.708523 -7.363475 -3.720938 18.141146 -14.052739 -3.242672 6e-06 -18.78727 -3e-06 -0.429711 -8.456043 2.555504 0.0 -1e-06 0.0 -15.923539 -20.094484 -5.473586 30.419214 -7.190827 1.735927 3e-06 -8.162928 -1e-06 -1.861905 -22.861469 -6.167943 0.0 -5e-06 -2e-06 -176.777359 -1.133349 1.113759 8.60264 -0.035046 -0.121483 -77.942719 -11.374514 -5.511874 -5.107453 1.512629 2.135903 -0.999999 -0.0 0.0 1.422044 -2.777252 6.103222 13.465507 -0.023701 0.044067 -81.189209 -9.013235 -6.235154 -4.705745 0.783166 1.733829 -1.000002 -0.0 0.0 
0.0 0.0 0.0 0.0 -0.0 0.0 -1.492163 100.044502 -0.091535 91.084694 2.312519 90.283241 -3.484545 -0.387934 0.166064 -12.226303 -0.314835 0.927955 19.059885 -0.597439 -0.887984 25.720669 2.020697 2.522442 -2.635592 -0.686853 0.859634 -28.603619 -0.339795 0.964388 6e-06 0.0 -0.0 0.00667 0.007014 0.001998 -0.044346 0.002183 0.005016 -0.028262 0.009736 0.006461 -139.166626 -70.344093 154.572159 31.950287 -56.019901 11.943307 26.260103 0.473532 0.157734 -0.107715 1.891745 -8.857093 17.636625 -26.322725 52.411182 -19.466656 -14.395596 29.410378 -1e-06 -8.774819 -1e-06 16.276167 -17.911776 5.719189 -0.609776 -1.795653 -3.889328 -4.807086 -11.046809 -2.93785 6e-06 -20.976015 -0.0 -5.019969 -25.033548 -4.031878 7e-06 -0.0 -0.0 -10.63453 -5.686969 -3.565587 10.573271 -17.922947 -3.113902 2e-06 -13.821205 1e-06 -0.501778 -31.181498 -4.027014 -10.782004 -59.050365 6.32686 -13.98271 -7.150196 -2.875042 13.772726 -8.401491 -3.218241 0.347735 -34.211552 0.771654 -0.963028 -17.73337 2.621019 -0.0 1e-06 -0.0 -17.346413 -20.095215 -4.201782 21.757555 -1.638376 3.866426 2e-06 -6.338824 1e-06 -1.697588 -22.591742 -6.194005 -1e-06 -0.0 -1e-06 29.329731 -75.482483 165.167435 34.156883 -61.431877 12.269325 24.861048 0.011064 0.070389 2.244649 2.273701 -7.797148 22.18211 -20.375896 49.933319 -16.701813 -16.743528 28.47653 -4e-06 -12.690598 -1e-06 16.398838 -17.827808 2.536706 -0.105918 -1.513855 -4.275882 -5.03904 -5.61287 -2.953557 4e-06 -11.020521 1e-06 -6.111295 -15.89533 -3.840468 0.0 0.0 -0.0 -10.283367 -5.680287 -4.341838 11.028294 -11.302404 -2.372633 -1.384268 -14.238577 -6.320122 -0.625438 -26.924183 -3.827598 -4.300004 -49.993778 -3.669194 -13.708521 -7.363474 -3.720938 18.141146 -14.052739 -3.242676 8e-06 -18.787266 -0.0 -0.429712 -8.456041 2.555504 -1e-06 -0.0 0.0 -15.92353 -20.094479 -5.473584 30.419205 -7.190827 1.735926 3e-06 -8.162925 1e-06 -1.861902 -22.861464 -6.167937 -0.0 -5e-06 -2e-06 -176.634827 -1.119541 1.150433 8.162969 -0.023472 -0.104853 -77.753838 -11.373722 -5.59002 -5.179041 1.531396 2.141589 -0.999998 0.0 -0.0 1.495505 -2.789309 6.219244 13.133558 -0.019618 0.055895 -81.043373 -9.067268 -6.255113 -4.749702 0.786498 1.738121 -1.000002 -0.0 0.0 
0.0 0.0 0.0 0.0 -0.0 0.0 -1.484872 100.061012 -0.081559 91.078621 2.217295 90.255989 -3.515104 -0.376814 0.169346 -12.213278 -0.286443 0.966562 19.027676 -0.595914 -0.850123 25.41489 2.073809 2.511821 -2.646809 -0.676825 0.888823 -28.672445 -0.441519 1.066445 6e-06 0.0 0.0 0.00402 0.007264 0.009446 -0.044947 0.001525 0.01346 -0.023904 0.010656 0.012397 -139.415604 -70.352348 154.794891 31.072863 -56.258064 11.006926 27.162762 0.367577 0.132208 -0.181553 0.775468 -12.336328 17.636623 -26.322725 52.411182 -19.466661 -14.3956 29.410385 -1e-06 -8.77482 -1e-06 16.164385 -17.796375 5.834232 -0.609775 -1.795653 -3.889327 -4.807087 -11.046809 -2.937848 5e-06 -20.976015 -1e-06 -5.01997 -25.033556 -4.031878 7e-06 1e-06 -1e-06 -10.634534 -5.68697 -3.565587 10.573275 -17.922947 -3.1139 4e-06 -13.821205 1e-06 -0.501775 -31.181498 -4.027017 -10.661962 -58.995594 6.289268 -13.982712 -7.150197 -2.875041 13.772729 -8.401491 -3.218242 0.347734 -34.211544 0.771655 -0.963031 -17.733366 2.62102 1e-06 1e-06 -3e-06 -17.346415 -20.095215 -4.201783 21.757557 -1.638375 3.866426 2e-06 -6.338824 0.0 -1.697589 -22.591742 -6.194005 1e-06 -6e-06 -2e-06 28.847126 -75.477074 165.622238 33.797073 -61.437786 12.0307 25.332872 -0.020488 0.048545 1.956944 1.864244 -8.437633 22.182116 -20.375883 49.933308 -16.701817 -16.743526 28.476524 -4e-06 -12.6906 -1e-06 16.417116 -17.81439 2.551006 -0.105919 -1.513856 -4.275882 -5.039041 -5.612872 -2.953557 4e-06 -11.020523 -3e-06 -6.111296 -15.895334 -3.840471 0.0 0.0 -0.0 -10.283367 -5.680287 -4.34184 11.028292 -11.302404 -2.372632 -1.384268 -14.238582 -6.32012 -0.625438 -26.924187 -3.827601 -4.303407 -50.018345 -3.657464 -13.708522 -7.363475 -3.72094 18.14115 -14.052739 -3.242676 9e-06 -18.787268 -5e-06 -0.429713 -8.456043 2.555504 0.0 -1e-06 -1e-06 -15.923532 -20.094482 -5.473588 30.419207 -7.190827 1.735927 3e-06 -8.162927 -1e-06 -1.8619 -22.861469 -6.167942 -0.0 -3e-06 -2e-06 -176.626343 -1.114153 1.190119 7.964598 -0.018238 -0.09495 -77.659042 -11.408937 -5.625532 -5.222344 1.539087 2.143046 -1.0 -0.0 -0.0 1.47384 -2.794504 6.309083 12.969431 -0.010164 0.067416 -80.961693 -9.131394 -6.283104 -4.764469 0.800602 1.741745 -1.000002 -0.0 -0.0 
0.0 0.0 0.0 0.0 -0.0 0.0 -1.486469 100.078606 -0.08597 91.060959 2.107503 90.223129 -3.526397 -0.374672 0.178582 -12.198697 -0.262024 0.990757 18.961304 -0.560308 -0.794437 25.043373 2.153018 2.511063 -2.668854 -0.673213 0.960028 -28.769028 -0.534926 1.218527 6e-06 0.0 -0.0 -0.000542 0.009439 0.012537 -0.049051 0.004058 0.018583 -0.024527 0.01233 0.013311 -139.66629 -70.458496 154.99173 30.026964 -56.569454 10.011364 28.515299 0.3087 0.121164 -0.218435 -1.088735 -18.019154 17.636627 -26.322737 52.411198 -19.466661 -14.395598 29.410393 -1e-06 -8.774822 -3e-06 16.001223 -17.565514 6.011095 -0.609777 -1.795653 -3.889328 -4.807089 -11.046809 -2.937849 3e-06 -20.976015 2e-06 -5.019972 -25.033556 -4.031878 6e-06 0.0 -1e-06 -10.634532 -5.686969 -3.565588 10.573272 -17.922947 -3.1139 2e-06 -13.821204 3e-06 -0.50178 -31.181498 -4.027012 -10.467097 -58.966793 6.275651 -13.982713 -7.150196 -2.875042 13.77273 -8.401491 -3.218241 0.347732 -34.211544 0.77166 -0.963029 -17.73337 2.621021 -1e-06 0.0 -1e-06 -17.346416 -20.095213 -4.201782 21.757559 -1.638375 3.866428 1e-06 -6.338823 1e-06 -1.69759 -22.591736 -6.194003 0.0 -4e-06 -1e-06 28.185123 -75.524902 166.236862 33.36475 -61.428501 11.747527 26.155872 -0.006088 0.033519 1.527297 1.270337 -9.44974 22.18211 -20.375879 49.933296 -16.701807 -16.743525 28.476519 -2e-06 -12.6906 -1e-06 16.44837 -17.788116 2.57107 -0.10592 -1.513856 -4.275879 -5.03904 -5.61287 -2.953555 3e-06 -11.020517 -3e-06 -6.111297 -15.895328 -3.840471 -0.0 0.0 -2e-06 -10.283369 -5.680288 -4.341836 11.028291 -11.302399 -2.372631 -1.38427 -14.238577 -6.320119 -0.625437 -26.924179 -3.827602 -4.306334 -49.982105 -3.639386 -13.70852 -7.363474 -3.720938 18.141146 -14.052732 -3.242674 7e-06 -18.787262 -4e-06 -0.429712 -8.456039 2.555502 -1e-06 -1e-06 -2e-06 -15.923534 -20.094479 -5.473582 30.419205 -7.190823 1.735928 3e-06 -8.162921 -1e-06 -1.861902 -22.861462 -6.167943 1e-06 -3e-06 -1e-06 -176.670776 -1.130714 1.195197 7.819622 -0.010972 -0.089403 -77.573898 -11.451434 -5.621458 -5.272495 1.52765 2.137578 -0.999999 1e-06 0.0 1.427819 -2.79255 6.33108 12.798511 0.004388 0.071775 -80.869064 -9.121625 -6.288136 -4.800015 0.807747 1.74119 -1.000003 0.0 -0.0 
